<svg width="13" height="12" viewBox="0 0 13 12" fill="none" xmlns="http://www.w3.org/2000/svg">
<path fill-rule="evenodd" clip-rule="evenodd" d="M6.78972 1.38088C7.31698 0.910115 8.03211 0.645639 8.77777 0.64564C9.52343 0.64564 10.2385 0.910115 10.7658 1.38088C11.2931 1.85165 11.5893 2.49016 11.5893 3.15592C11.5893 3.82169 11.2931 4.46019 10.7658 4.93096L5.90277 9.27296C5.75262 9.40707 5.57437 9.51346 5.37817 9.58605C5.18198 9.65865 4.97169 9.69604 4.75932 9.69607C4.33041 9.69614 3.91903 9.54408 3.61569 9.27334C3.31235 9.0026 3.14189 8.63536 3.14181 8.2524C3.14173 7.86945 3.31204 7.50215 3.61527 7.23131L8.33302 3.01828L8.93108 3.55226L4.21249 7.76454C4.14077 7.82857 4.08388 7.90459 4.04507 7.98825C4.00626 8.07191 3.98628 8.16158 3.98628 8.25214C3.98628 8.34269 4.00626 8.43236 4.04507 8.51602C4.08388 8.59969 4.14077 8.6757 4.21249 8.73974C4.2842 8.80377 4.36934 8.85456 4.46304 8.88921C4.55675 8.92387 4.65718 8.94171 4.7586 8.94171C4.86002 8.9417 4.96045 8.92387 5.05415 8.88921C5.14785 8.85456 5.23299 8.80377 5.30471 8.73974L10.1678 4.39773C10.3504 4.23466 10.4953 4.04106 10.5941 3.82799C10.693 3.61492 10.7439 3.38655 10.7439 3.15592C10.7439 2.9253 10.693 2.69693 10.5941 2.48386C10.4953 2.27079 10.3504 2.07719 10.1678 1.91411C9.9851 1.75104 9.76827 1.62168 9.52963 1.53342C9.29099 1.44516 9.03522 1.39974 8.77692 1.39974C8.51862 1.39974 8.26285 1.44516 8.02421 1.53342C7.78557 1.62168 7.56874 1.75104 7.38609 1.91411L2.3786 6.38584C1.79771 6.91743 1.47484 7.63199 1.47996 8.37466C1.48508 9.11734 1.81779 9.82829 2.40597 10.3535C2.99415 10.8786 3.79042 11.1757 4.62221 11.1802C5.45401 11.1848 6.25432 10.8965 6.8497 10.3779L11.7127 6.03513L12.3108 6.56911L7.44691 10.9111C6.69103 11.5617 5.6793 11.9214 4.6294 11.9128C3.57951 11.9042 2.57536 11.528 1.83299 10.865C1.09063 10.2021 0.669386 9.3055 0.659893 8.36809C0.6504 7.43069 1.05342 6.52741 1.78223 5.85261L6.78972 1.38013L6.78972 1.38088Z" fill="#9B9B9B"/>
</svg>
