<svg width="138" height="36" fill="none" xmlns="http://www.w3.org/2000/svg"><path fill-rule="evenodd" clip-rule="evenodd" d="M12.012 10.469v4.523h16.404v9.07H12.012v10.604a18.447 18.447 0 003.951 1.328c7.99-1.65 15.493-8.759 15.728-21.384l.083-4.112-19.762-.03z" fill="#2E6717"/><path d="M31.78 10.469l.152-9.781A201.02 201.02 0 0015.975.059C10.601.059 5.276.27 0 .693l.1 7.638.147 6.268s.053 5.816 2.01 9.987a19.282 19.282 0 009.773 10.087V24.069h16.404v-9.07H12.012v-4.524l19.768-.006z" fill="#66B821"/><path d="M47.39 7.008v2.35h4.939v2.632H47.39v4.406h-3.21V4.376h8.537v2.632H47.39zm14.205 6.21h-2.487v3.19h-3.21V4.377h6.197a8.085 8.085 0 012.352.317 2.316 2.316 0 011.323 1.075 4.62 4.62 0 01.44 2.25c.014.628-.021 1.257-.105 1.88a1.95 1.95 0 01-.588 1.104 3.377 3.377 0 01-1.576.723v.13a2.353 2.353 0 011.588.587 2.033 2.033 0 01.588 1.55v2.42h-3.205v-1.668c0-1.018-.439-1.527-1.317-1.527zm-2.487-2.79h2.487a1.87 1.87 0 00.912-.165.741.741 0 00.352-.529c.057-.389.081-.782.071-1.175a1.62 1.62 0 00-.27-1.092 1.477 1.477 0 00-1.065-.282h-2.487v3.243zm13.765-3.42v2.198h5.138v2.226h-5.138v2.35h5.585v2.632h-8.82V4.377h8.685v2.631h-5.45zm12.382 0v2.198h5.139v2.226h-5.139v2.35h5.586v2.632h-8.82V4.377h8.684v2.631h-5.45zm9.067 9.4V4.377h6.097a7.06 7.06 0 012.769.458 3.038 3.038 0 011.57 1.486 6.2 6.2 0 01.488 2.726v2.52a7.715 7.715 0 01-.412 2.75 2.939 2.939 0 01-1.352 1.574 5.589 5.589 0 01-2.622.517h-6.538zm3.21-9.235v6.462h2.804c1.082 0 1.623-.683 1.623-2.05V9.047a3.21 3.21 0 00-.164-1.175.978.978 0 00-.512-.558c-.3-.113-.62-.165-.941-.153l-2.81.012zm16.386 9.335a12.96 12.96 0 01-2.352-.182 4.67 4.67 0 01-1.716-.658 3.106 3.106 0 01-1.129-1.351 5.346 5.346 0 01-.4-2.221V8.695c-.026-.76.11-1.518.4-2.221.237-.55.629-1.02 1.129-1.351a4.7 4.7 0 011.716-.658 14.819 14.819 0 014.651 0 4.7 4.7 0 011.717.658c.498.332.888.801 1.123 1.35.289.705.425 1.461.4 2.222v3.395a5.379 5.379 0 01-.4 2.22 3.086 3.086 0 01-1.129 1.352 4.668 4.668 0 01-1.717.658 12.93 12.93 0 01-2.293.188zm0-2.79c.465.008.929-.04 1.382-.148a1.02 1.02 0 00.67-.546c.165-.412.237-.855.212-1.298V9.029a3.702 3.702 0 00-.118-1.063 1.098 1.098 0 00-.376-.587 1.453 1.453 0 00-.67-.253 7.904 7.904 0 00-1.1-.059 5.485 5.485 0 00-1.364.124 1.021 1.021 0 00-.664.534 3.155 3.155 0 00-.235 1.299v2.708c-.013.446.067.89.235 1.304a1.023 1.023 0 00.664.54 5.42 5.42 0 001.364.135v.006zm11.807-6.533l.323 9.217h-3.21V4.377h5.086l2.299 7.554h.111l2.182-7.554h5.215v12.031h-3.204l.323-9.217h-.112l-3.034 9.217h-2.775l-3.104-9.223h-.1zM48.213 22.97v1.028h-2.199V31.4h-1.329v-7.39h-1.281v-1.04h1.281v-1.24a2.488 2.488 0 01.635-1.95 3.112 3.112 0 012.064-.552l.788.047v1.04a4.931 4.931 0 00-.688-.047h-.223a1.306 1.306 0 00-1.006.311 1.562 1.562 0 00-.282 1.052v1.339h2.24zm3.41-3.595v1.38h-1.281v-1.38h1.281zm0 3.624V31.4h-1.281V23h1.281zm4.169 3.255V31.4H54.51V23h1.176v1.074a2.41 2.41 0 011.235-.992 4.955 4.955 0 011.635-.224c1.144 0 1.944.212 2.398.635.455.423.682 1.206.682 2.35v5.563h-1.252v-5.44a2.524 2.524 0 00-.382-1.668c-.259-.267-.815-.4-1.67-.4a2.853 2.853 0 00-1.905.547 2.273 2.273 0 00-.635 1.809zM70.25 27.3v-1.175c0-1.015-.145-1.653-.435-1.916-.29-.262-.964-.393-2.022-.393a3.401 3.401 0 00-1.576.247 1.11 1.11 0 00-.418 1.034v.223h-1.282c0-1.05.316-1.745.947-2.086a5.44 5.44 0 012.393-.37c1.305 0 2.209.167 2.71.5.644.415.965 1.237.965 2.467v5.58h-1.176l.047-1.056a2.11 2.11 0 01-.964 1.004 5.514 5.514 0 01-1.864.217 4.596 4.596 0 01-2.44-.481c-.588-.392-.882-1.13-.882-2.215 0-1.014.288-1.71.864-2.086a4.425 4.425 0 012.352-.464 6.293 6.293 0 011.982.206c.351.147.636.42.8.764zm0 1.65c0-.728-.172-1.184-.517-1.368a5.79 5.79 0 00-2.282-.282c-.494-.04-.99.049-1.44.258a1.31 1.31 0 00-.494 1.175 1.89 1.89 0 00.435 1.445 2.3 2.3 0 001.517.388 6.137 6.137 0 002-.206 1.358 1.358 0 00.781-1.41zm5.445-2.696V31.4h-1.282V23h1.176v1.074a2.41 2.41 0 011.235-.992 4.954 4.954 0 011.634-.224c1.145 0 1.944.212 2.399.635.455.423.682 1.206.682 2.35v5.563h-1.282v-5.44a2.524 2.524 0 00-.382-1.668c-.259-.267-.815-.4-1.67-.4a2.854 2.854 0 00-1.905.547 2.275 2.275 0 00-.605 1.809zm14.54 2.103h1.235c0 1.261-.284 2.123-.853 2.585-.568.462-1.493.67-2.775.623-1.403 0-2.356-.306-2.857-.917-.502-.61-.753-1.754-.753-3.43 0-1.67.249-2.813.747-3.431.498-.62 1.442-.929 2.834-.929a4.879 4.879 0 012.552.511 2.292 2.292 0 01.964 2.104v.27h-1.217a1.925 1.925 0 00-.4-1.428 3.018 3.018 0 00-1.9-.417c-.944 0-1.561.196-1.851.588-.29.391-.436 1.284-.436 2.678 0 1.36.153 2.254.46 2.685.305.431.924.648 1.857.652.988 0 1.635-.14 1.94-.423.306-.282.457-.855.453-1.721zm10.972-.917h-6.039c0 1.273.151 2.11.453 2.51.302.399.947.594 1.934.587a4.173 4.173 0 001.923-.282 1.292 1.292 0 00.435-1.175v-.235h1.282c0 1.124-.31 1.878-.929 2.261-.494.31-1.398.464-2.71.464-1.412 0-2.378-.305-2.9-.916-.52-.61-.78-1.766-.776-3.466 0-1.625.279-2.753.835-3.384.557-.63 1.498-.946 2.823-.946 1.305 0 2.242.294 2.81.882.568.587.853 1.607.853 3.06l.006.64zm-1.282-.98a3.07 3.07 0 00-.512-2.027 2.455 2.455 0 00-1.87-.588 2.425 2.425 0 00-1.863.588 3.1 3.1 0 00-.506 2.026h4.75z" fill="#000"/></svg>