<svg width="16" height="17" viewBox="0 0 16 17" fill="none" xmlns="http://www.w3.org/2000/svg">
<path d="M13.4795 3.05225L13.4794 3.05219C13.3097 2.87985 13.0645 2.75666 12.8019 2.70501C12.5386 2.65319 12.2811 2.67775 12.0868 2.7715C11.8011 2.90949 11.4716 2.98702 11.166 3.01064C10.8648 3.03391 10.5588 3.00692 10.328 2.91003C10.0975 2.81325 9.86253 2.61326 9.66605 2.38139C9.46659 2.14601 9.28789 1.85558 9.18227 1.5539C9.10946 1.34628 8.94324 1.14327 8.72045 0.990709C8.49817 0.838504 8.23901 0.75 8 0.75C7.76099 0.75 7.50183 0.838504 7.27955 0.990709C7.05676 1.14327 6.89054 1.34628 6.81773 1.5539C6.71197 1.85553 6.53329 2.14596 6.33385 2.38137C6.13742 2.61322 5.90252 2.81323 5.67199 2.91003C5.44122 3.00693 5.13507 3.03391 4.83388 3.01064C4.52818 2.98702 4.19858 2.90948 3.91278 2.77147C3.71872 2.67776 3.46135 2.65319 3.19797 2.70501C2.93544 2.75666 2.6901 2.87986 2.52022 3.05225C2.35014 3.22484 2.22798 3.47477 2.17671 3.74308C2.1253 4.01213 2.14959 4.27574 2.24291 4.47487C2.37848 4.76417 2.45434 5.09764 2.47717 5.40687C2.49968 5.71173 2.47261 6.02066 2.37753 6.25325C2.28253 6.48563 2.08683 6.72395 1.85831 6.92401C1.6267 7.12677 1.34032 7.30877 1.04154 7.4161C0.839025 7.48884 0.639235 7.65626 0.488396 7.88285C0.338115 8.1086 0.25 8.37308 0.25 8.61829C0.25 8.86351 0.338123 9.1282 0.488468 9.3543C0.639333 9.58119 0.839182 9.74905 1.0418 9.82225L13.4795 3.05225ZM13.4795 3.05225C13.6495 3.22486 13.7718 3.47489 13.8231 3.74326C13.8746 4.01239 13.8504 4.27594 13.7571 4.47481C13.6214 4.76397 13.5453 5.09749 13.5223 5.40679C13.4996 5.71177 13.5264 6.02084 13.621 6.25349C13.7157 6.48657 13.9121 6.72492 14.1409 6.92469C14.3728 7.12723 14.6596 7.30885 14.9581 7.4161C15.1607 7.48885 15.3605 7.65629 15.5115 7.8829C15.6618 8.10866 15.75 8.37312 15.75 8.61829C15.75 8.86351 15.6619 9.1282 15.5115 9.35436C15.3607 9.58124 15.1608 9.7492 14.9582 9.82259M13.4795 3.05225L10.3268 14.3274M10.3268 14.3274L10.327 14.3274C10.5579 14.23 10.8644 14.2028 11.1657 14.2261C11.4715 14.2496 11.8012 14.3272 12.0868 14.4654C12.2811 14.5591 12.5385 14.5836 12.8019 14.5318C13.0645 14.4801 13.3097 14.3569 13.4795 14.1847C13.6495 14.0121 13.7718 13.762 13.8231 13.4937C13.8746 13.2245 13.8504 12.961 13.7571 12.7621L13.7571 12.762C13.6216 12.4729 13.5454 12.1397 13.5221 11.8307C13.4992 11.5261 13.5256 11.2173 13.6204 10.9849C13.7152 10.7523 13.9119 10.5141 14.1408 10.3145C14.3729 10.112 14.6598 9.93016 14.9582 9.82259M10.3268 14.3274C10.0965 14.4248 9.86183 14.6251 9.66558 14.8571C9.46637 15.0926 9.28791 15.3828 9.18231 15.6839C9.10956 15.891 8.94339 16.0937 8.72056 16.2461C8.49826 16.3981 8.23906 16.4866 8 16.4866C7.76094 16.4866 7.50174 16.3981 7.27944 16.2461C7.0566 16.0937 6.89044 15.891 6.81769 15.6839C6.71194 15.3829 6.53341 15.0925 6.33408 14.8568C6.13781 14.6249 5.90294 14.4243 5.67217 14.3273C5.4414 14.2302 5.13531 14.203 4.83412 14.2261C4.52841 14.2496 4.1988 14.3271 3.91284 14.4651C3.7186 14.5588 3.46122 14.5833 3.19789 14.5315C2.93542 14.4798 2.69014 14.3566 2.52022 14.1843C2.35016 14.0118 2.22799 13.7617 2.17672 13.4934C2.1253 13.2243 2.14961 12.9607 2.24288 12.7618C2.37843 12.4727 2.45448 12.1394 2.47749 11.8305C2.50017 11.5259 2.47333 11.2172 2.37813 10.9849L10.3268 14.3274ZM14.9582 9.82259L15.043 10.0578M14.9582 9.82259C14.9581 9.82262 14.958 9.82265 14.9579 9.82268L15.043 10.0578M15.043 10.0578C14.5144 10.2483 14.001 10.7136 13.8519 11.0793C13.7028 11.4449 13.7425 12.1417 13.9835 12.656L15.043 10.0578ZM1.85857 10.3147C2.08712 10.5146 2.28304 10.7527 2.3781 10.9848L1.85857 10.3147ZM1.85857 10.3147C1.62687 10.112 1.34046 9.92992 1.04187 9.82228L1.85857 10.3147ZM4.81446 8.62164C4.81446 10.4002 6.23552 11.8472 8 11.8472C9.76135 11.8472 11.1822 10.4 11.1822 8.62164C11.1822 6.84007 9.76119 5.3927 8 5.3927C6.23534 5.3927 4.81446 6.8399 4.81446 8.62164Z" stroke="black" stroke-width="0.5"/>
</svg>
