<svg width="75" height="13" fill="none" xmlns="http://www.w3.org/2000/svg"><path d="M1.358 0v11.943H0V0h1.358zm3.657 6.826v5.135H3.751V3.584h1.176v1.069a2.407 2.407 0 011.235-.993 4.937 4.937 0 011.634-.223c1.141 0 1.939.211 2.394.634.454.423.681 1.206.681 2.35v5.546H9.59V6.538a2.513 2.513 0 00-.382-1.662c-.255-.266-.81-.4-1.664-.4a2.842 2.842 0 00-1.894.547 2.268 2.268 0 00-.635 1.803zm8.026 2.479h1.176a1.719 1.719 0 00.488 1.457c.558.288 1.186.41 1.81.353a3.796 3.796 0 001.841-.294c.302-.196.453-.619.453-1.269a1.121 1.121 0 00-.517-1.004 3.283 3.283 0 00-1.717-.335 5.59 5.59 0 01-2.476-.417 2.022 2.022 0 01-1.087-1.968 2.161 2.161 0 01.735-1.857c.49-.36 1.348-.542 2.575-.546a6.797 6.797 0 012.499.335 1.681 1.681 0 011.058 1.68v.34h-1.252a1.139 1.139 0 00-.383-.992 3.248 3.248 0 00-1.763-.335 3.83 3.83 0 00-1.764.264 1.088 1.088 0 00-.441 1.017 1.232 1.232 0 00.447 1.116 4.37 4.37 0 001.999.288 4.513 4.513 0 012.446.528 2.21 2.21 0 01.929 1.998c0 .979-.279 1.645-.835 1.997a5.295 5.295 0 01-2.67.482c-1.332 0-2.234-.16-2.704-.482-.56-.395-.843-1.18-.847-2.356zm14.852-.781v-4.94h1.282v8.377h-1.176v-1.105a2.516 2.516 0 01-1.229 1.023 4.824 4.824 0 01-1.646.223 3.412 3.412 0 01-2.211-.588 2.656 2.656 0 01-.706-2.097V3.542h1.282v5.581a2.173 2.173 0 00.388 1.51c.44.316.98.456 1.517.394.972 0 1.63-.184 1.976-.552.4-.568.585-1.26.523-1.95zm5.015-2.156v5.581h-1.281V3.584h1.246l-.047.975c.224-.385.558-.694.959-.887.42-.2.88-.3 1.346-.294 1.63 0 2.446.832 2.446 2.497v.493H36.33V5.74a1.306 1.306 0 00-.346-1.034 1.694 1.694 0 00-1.112-.294c-1.309 0-1.964.652-1.964 1.956zm12.124 1.498V6.691c0-1.014-.143-1.65-.429-1.909-.286-.259-.958-.39-2.017-.394a3.39 3.39 0 00-1.57.247A1.104 1.104 0 0040.6 5.67v.24h-1.276c0-1.045.316-1.738.947-2.079a5.42 5.42 0 012.381-.37c1.301 0 2.203.165 2.705.494.639.415.958 1.235.958 2.461v5.564h-1.176l.047-1.058a2.104 2.104 0 01-.958.999 5.492 5.492 0 01-1.858.217c-.84.066-1.683-.1-2.434-.482-.588-.391-.882-1.128-.882-2.209 0-1.014.288-1.707.864-2.08a4.413 4.413 0 012.352-.463 6.285 6.285 0 011.975.205c.347.148.627.418.788.758zm0 1.645c0-.724-.172-1.18-.517-1.369a5.767 5.767 0 00-2.276-.282 2.854 2.854 0 00-1.446.27 1.305 1.305 0 00-.494 1.175 1.89 1.89 0 00.43 1.44 2.3 2.3 0 001.516.382 6.123 6.123 0 001.994-.206 1.352 1.352 0 00.793-1.41zm4.986-2.685v5.135h-1.282V3.584h1.176v1.069a2.407 2.407 0 011.235-.993 4.938 4.938 0 011.635-.223c1.14 0 1.938.211 2.393.634.454.423.682 1.206.682 2.35v5.546h-1.282V6.538a2.513 2.513 0 00-.382-1.662c-.255-.266-.81-.4-1.664-.4a2.842 2.842 0 00-1.893.547 2.268 2.268 0 00-.618 1.803zM64.07 8.924h1.235c0 1.257-.282 2.115-.846 2.573-.565.458-1.488.665-2.77.623-1.399 0-2.347-.304-2.845-.911-.498-.607-.749-1.747-.753-3.42 0-1.664.249-2.803.747-3.418.498-.615 1.438-.925 2.822-.928.88-.064 1.76.113 2.546.51a2.285 2.285 0 01.958 2.092v.27h-1.217a1.92 1.92 0 00-.4-1.421 3.007 3.007 0 00-1.893-.418c-.94 0-1.556.196-1.846.588-.29.392-.435 1.28-.435 2.667 0 1.355.153 2.248.458 2.679.306.43.923.646 1.852.646.984 0 1.63-.14 1.935-.423.306-.282.457-.852.453-1.71zm10.49-.911h-6.015c0 1.269.151 2.103.453 2.503.302.4.944.595 1.928.587a4.159 4.159 0 001.917-.282 1.285 1.285 0 00.435-1.175v-.27h1.282c0 1.12-.31 1.872-.929 2.256-.49.31-1.392.464-2.705.464-1.407 0-2.37-.304-2.887-.91-.517-.608-.78-1.751-.788-3.431 0-1.622.279-2.746.835-3.373.557-.626 1.5-.943 2.829-.951 1.3 0 2.234.294 2.798.881.565.587.847 1.606.847 3.055v.646zm-1.282-.975a3.059 3.059 0 00-.511-2.021 2.453 2.453 0 00-1.864-.588 2.424 2.424 0 00-1.858.588 3.094 3.094 0 00-.5 2.02h4.733z" fill="#000"/></svg>